<mxfile host="app.diagrams.net" modified="2023-07-29T09:16:04.165Z" agent="Mozilla/5.0 (Macintosh; Intel Mac OS X 10_15_7) AppleWebKit/605.1.15 (KHTML, like Gecko) Version/16.5.2 Safari/605.1.15" version="21.6.6" etag="GAJvgOJDDVsdri1N4-jG" type="github">
  <diagram name="第 1 页" id="LxxhR4wy-_Izk12b0z_Z">
    <mxGraphModel>
      <root>
        <mxCell id="0" />
        <mxCell id="1" parent="0" />
      </root>
    </mxGraphModel>
  </diagram>
</mxfile>
